<?xml version="1.0" encoding="iso-8859-1"?>
<!-- Generator: Adobe Illustrator 19.0.0, SVG Export Plug-In . SVG Version: 6.00 Build 0)  -->
<svg version="1.1" id="Capa_1" xmlns="http://www.w3.org/2000/svg" xmlns:xlink="http://www.w3.org/1999/xlink" x="0px" y="0px"
	 viewBox="0 0 468.293 468.293" style="enable-background:new 0 0 468.293 468.293;" xml:space="preserve">
<path style="fill:#E1E6E9;" d="M408.967,48.384v364.768H59.309V48.384c0-0.188,0-0.375,0.063-0.563
	c0.25-16.983,14.111-30.657,31.157-30.657h287.22C394.981,17.164,408.967,31.151,408.967,48.384z"/>
<path style="fill:#EBF0F3;" d="M371.129,79.041v334.111H59.309V48.384c0-0.188,0-0.375,0.063-0.563H339.91
	C357.143,47.821,371.129,61.808,371.129,79.041z"/>
<g>
	<path style="fill:#64798A;" d="M455.805,451.128H12.488C5.591,451.128,0,445.537,0,438.641v-12.488
		c0-6.897,5.591-12.488,12.488-12.488h443.317c6.897,0,12.488,5.591,12.488,12.488v12.488
		C468.293,445.537,462.702,451.128,455.805,451.128z"/>
	<path style="fill:#64798A;" d="M96.772,150.846h21.714v62.747l58.883-62.747h27.607l-51.71,56.308l52.444,72.316h-25.765
		l-42.687-56.308l-18.772,20.247v36.061H96.772V150.846z"/>
	<path style="fill:#64798A;" d="M248.031,279.47h-21.714V150.846h33.859L299,231.624l38.831-80.777h33.672V279.47h-21.714V179
		l-44.896,89.239h-12.145L248.031,179V279.47z"/>
</g>
<g>
</g>
<g>
</g>
<g>
</g>
<g>
</g>
<g>
</g>
<g>
</g>
<g>
</g>
<g>
</g>
<g>
</g>
<g>
</g>
<g>
</g>
<g>
</g>
<g>
</g>
<g>
</g>
<g>
</g>
</svg>
